<?xml version="1.0" encoding="iso-8859-1"?>
<!-- Generator: Adobe Illustrator 19.0.0, SVG Export Plug-In . SVG Version: 6.00 Build 0)  -->
<svg version="1.1" id="Capa_1" xmlns="http://www.w3.org/2000/svg" xmlns:xlink="http://www.w3.org/1999/xlink" x="0px" y="0px"
	 viewBox="0 0 512 512" style="enable-background:new 0 0 512 512;" xml:space="preserve">
<g>
	<g>
		<path d="M346,189.489c-92.52,0-165,46.128-165,105s72.48,105,165,105c11.411,0,24.027-0.908,37.167-2.856L452,442.511V375.48
			c38.276-19.878,60-49.014,60-80.991C512,235.617,438.52,189.489,346,189.489z M286,309.489h-30v-30h30V309.489z M361,309.489h-30
			v-30h30V309.489z M437,309.489h-30v-30h30V309.489z"/>
	</g>
</g>
<g>
	<g>
		<path d="M328.777,160.05C317.93,108.325,250.723,69.489,166,69.489c-92.52,0-166,46.128-166,105c0,31.977,22.724,61.113,61,80.976
			v67.046l68.833-45.879c7.819,1.155,15.234,1.91,22.403,2.371c5.775-38.262,33.208-70.441,73.764-91.829v-27.686h30v14.698
			C277.991,166.607,302.333,161.513,328.777,160.05z M106,189.489H76v-30h30V189.489z M181,189.489h-30v-30h30V189.489z"/>
	</g>
</g>
<g>
</g>
<g>
</g>
<g>
</g>
<g>
</g>
<g>
</g>
<g>
</g>
<g>
</g>
<g>
</g>
<g>
</g>
<g>
</g>
<g>
</g>
<g>
</g>
<g>
</g>
<g>
</g>
<g>
</g>
</svg>
