<?xml version="1.0" encoding="iso-8859-1"?>
<!-- Generator: Adobe Illustrator 16.0.0, SVG Export Plug-In . SVG Version: 6.00 Build 0)  -->
<!DOCTYPE svg PUBLIC "-//W3C//DTD SVG 1.1//EN" "http://www.w3.org/Graphics/SVG/1.1/DTD/svg11.dtd">
<svg version="1.1" id="Capa_1" xmlns="http://www.w3.org/2000/svg" xmlns:xlink="http://www.w3.org/1999/xlink" x="0px" y="0px"
	 width="421.551px" height="421.551px" viewBox="0 0 421.551 421.551" style="enable-background:new 0 0 421.551 421.551;"
	 xml:space="preserve">
<g>
	<g>
		<g>
			<path d="M261.63,338.759c4.099-5.188,9.485-9.123,15.579-11.446c-7.477-12.798-11.598-27.494-11.777-42.464
				c-0.021-1.816,0.035-3.633,0.127-5.438l-22.257-8.874l-19.711-16.606c-5.205-4.396-12.895-4.072-17.721,0.729l-27.4,27.247
				l-27.48-27.257c-4.83-4.791-12.508-5.104-17.709-0.719l-19.709,16.606l-84.166,33.562C2.306,314.889,2.326,410.868,0,419.679
				h230.729c-3.401-4.857-5.569-10.511-6.286-16.564c-1.142-9.646,1.545-19.158,7.56-26.783L261.63,338.759z"/>
			<path d="M351.16,369.677c-0.004,0-0.004,0-0.006,0c-8.424-0.002-16.865-1.267-24.922-3.701c-0.843,6.468-3.41,12.63-7.505,17.813
				l-28.303,35.889h66.484c-1.062-4.006-1.64-26.112-4.521-50.02C351.98,369.665,351.572,369.677,351.16,369.677z"/>
			<path d="M119.736,85.901c15.574,7.396,36.426,11.47,58.721,11.47c22.293,0,43.146-4.073,58.719-11.47
				c9.617-4.574,16.367-10.071,19.572-15.768c-0.1-0.036-0.193-0.068-0.293-0.103c-9.432-114.567-66.672-50.064-77.998-50.064
				c-11.328,0-68.568-64.503-78,50.064c-0.1,0.034-0.195,0.066-0.293,0.103C103.367,75.831,110.117,81.328,119.736,85.901z"/>
			<path d="M94.548,139.408c3.695,67.991,39.098,108.022,83.893,108.022c44.795,0,80.172-40.025,83.877-108.006
				c21.729-8.581,35.188-20.473,35.188-33.612c0-11.674-10.625-22.365-28.231-30.623c-4.353,8.786-13.339,16.645-26.346,22.826
				c-17.334,8.235-40.236,12.771-64.475,12.771c-24.24,0-47.143-4.537-64.479-12.771c-13.004-6.182-21.99-14.04-26.342-22.826
				c-17.607,8.258-28.232,18.949-28.232,30.623C59.404,118.943,72.843,130.831,94.548,139.408z"/>
			<path d="M394.814,228.682c-30.439-24.005-74.73-18.773-98.734,11.663c-20.68,26.22-19.658,62.727,0.481,87.681l-10.063,12.764
				c-4.818,0.877-9.346,3.441-12.619,7.588l-29.633,37.572c-7.125,9.031-5.576,22.13,3.457,29.253
				c9.031,7.124,22.129,5.577,29.256-3.455l29.631-37.571c3.271-4.146,4.709-9.147,4.439-14.039l10.063-12.76
				c28.965,13.771,64.697,6.262,85.383-19.963C430.482,296.979,425.25,252.685,394.814,228.682z M390.117,314.515
				c-16.892,21.418-48.06,25.101-69.476,8.207c-21.42-16.895-25.102-48.061-8.207-69.479c16.894-21.419,48.062-25.102,69.478-8.209
				C403.33,261.927,407.012,293.095,390.117,314.515z"/>
		</g>
	</g>
</g>
<g>
</g>
<g>
</g>
<g>
</g>
<g>
</g>
<g>
</g>
<g>
</g>
<g>
</g>
<g>
</g>
<g>
</g>
<g>
</g>
<g>
</g>
<g>
</g>
<g>
</g>
<g>
</g>
<g>
</g>
</svg>
