<svg height="480pt" viewBox="0 -31 480 479" width="480pt" xmlns="http://www.w3.org/2000/svg"><path d="m408 64.5c0 13.253906-10.746094 24-24 24s-24-10.746094-24-24 10.746094-24 24-24 24 10.746094 24 24zm0 0"/><path d="m120 64.5c0 13.253906-10.746094 24-24 24s-24-10.746094-24-24 10.746094-24 24-24 24 10.746094 24 24zm0 0"/><path d="m264 24.5c0 13.253906-10.746094 24-24 24s-24-10.746094-24-24 10.746094-24 24-24 24 10.746094 24 24zm0 0"/><path d="m464 112.5v136c-.027344 22.082031-17.917969 39.972656-40 40h-88v16h16v32h15.792969l.207031 64h-24v16h64v-16h-24l-.183594-64h16.183594v-32h24c30.914062-.035156 55.964844-25.085938 56-56v-136zm0 0"/><path d="m128 336.5v-32h16v-16h-88c-22.082031-.027344-39.972656-17.917969-40-40v-136h-16v136c.0351562 30.914062 25.085938 55.964844 56 56h24v32h16.207031l-.207031 64h-24v16h64v-16h-24l.183594-64zm0 0"/><path d="m295.472656 144.5.527344-32c-.027344-22.082031-17.917969-39.972656-40-40h-32c-22.082031.027344-39.972656 17.917969-40 40l.527344 32zm0 0"/><path d="m144 200.5v16h80c.015625 5.691406 3.066406 10.941406 8 13.777344v186.222656h16v-186.222656c4.933594-2.835938 7.984375-8.085938 8-13.777344h80v-16zm0 0"/><path d="m168 240.5h-56v-114.089844l55.097656 50.089844h40.902344c4.417969 0 8-3.582031 8-8v-8h-38.457031l-44.480469-48h-53.0625c-22.082031.027344-39.972656 17.917969-40 40v88c0 13.253906 10.746094 24 24 24h80c13.253906 0 24 10.746094 24 24v128h24v-152c0-13.253906-10.746094-24-24-24zm0 0"/><path d="m336 264.5h80c13.253906 0 24-10.746094 24-24v-88c-.027344-22.082031-17.917969-39.972656-40-40h-53.0625l-44.480469 48h-38.457031v8c0 4.417969 3.582031 8 8 8h40.902344l55.097656-50.089844v114.089844h-56c-13.253906 0-24 10.746094-24 24v152h24v-128c0-13.253906 10.746094-24 24-24zm0 0"/></svg>