<?xml version="1.0" encoding="iso-8859-1"?>
<!-- Generator: Adobe Illustrator 19.0.0, SVG Export Plug-In . SVG Version: 6.00 Build 0)  -->
<svg version="1.1" id="Capa_1" xmlns="http://www.w3.org/2000/svg" xmlns:xlink="http://www.w3.org/1999/xlink" x="0px" y="0px"
	 viewBox="0 0 428.16 428.16" style="enable-background:new 0 0 428.16 428.16;" xml:space="preserve">
<g>
	<g>
		<path d="M393.8,110.208c-0.512-11.264-0.512-22.016-0.512-32.768c0-8.704-6.656-15.36-15.36-15.36
			c-64,0-112.64-18.432-153.088-57.856c-6.144-5.632-15.36-5.632-21.504,0C162.888,43.648,114.248,62.08,50.248,62.08
			c-8.704,0-15.36,6.656-15.36,15.36c0,10.752,0,21.504-0.512,32.768c-2.048,107.52-5.12,254.976,174.592,316.928l5.12,1.024
			l5.12-1.024C398.408,365.184,395.848,218.24,393.8,110.208z M201.8,259.2c-3.072,2.56-6.656,4.096-10.752,4.096h-0.512
			c-4.096,0-8.192-2.048-10.752-5.12l-47.616-52.736l23.04-20.48l37.376,41.472l82.944-78.848l20.992,22.528L201.8,259.2z"/>
	</g>
</g>
</svg>
